<svg width="510" height="512" viewBox="0 0 510 512" fill="none" xmlns="http://www.w3.org/2000/svg">
<rect width="510" height="512" rx="90" fill="url(#paint0_linear_1_2)"/>
<path d="M226.583 269.458C232.578 277.472 240.226 284.103 249.008 288.901C257.791 293.7 267.502 296.553 277.484 297.268C287.467 297.983 297.486 296.543 306.863 293.045C316.239 289.547 324.754 284.074 331.829 276.996L373.704 235.121C386.417 221.958 393.452 204.328 393.293 186.029C393.134 167.73 385.794 150.226 372.854 137.286C359.914 124.346 342.409 117.006 324.11 116.847C305.811 116.688 288.182 123.722 275.019 136.435L251.01 160.304M282.417 241.542C276.422 233.528 268.774 226.897 259.992 222.099C251.209 217.3 241.498 214.447 231.515 213.732C221.533 213.017 211.514 214.457 202.137 217.955C192.761 221.453 184.246 226.926 177.171 234.004L135.296 275.879C122.583 289.042 115.548 306.672 115.707 324.971C115.866 343.27 123.206 360.774 136.146 373.714C149.086 386.654 166.591 393.994 184.89 394.153C203.189 394.312 220.818 387.278 233.981 374.565L257.85 350.696" stroke="#163142" stroke-width="22" stroke-linecap="round" stroke-linejoin="round"/>
<defs>
<linearGradient id="paint0_linear_1_2" x1="12.3857" y1="21.2114" x2="491.476" y2="500.616" gradientUnits="userSpaceOnUse">
<stop stop-color="#9FDBFF"/>
<stop offset="1" stop-color="white"/>
</linearGradient>
</defs>
</svg>
